<svg width="680" viewBox="0 0 680 620" xmlns="http://www.w3.org/2000/svg" style="background:#ffffff;font-family:sans-serif">
<defs>
<marker id="arrow" viewBox="0 0 10 10" refX="8" refY="5" markerWidth="6" markerHeight="6" orient="auto-start-reverse">
<path d="M2 1L8 5L2 9" fill="none" stroke="#888" stroke-width="1.5" stroke-linecap="round" stroke-linejoin="round"/>
</marker>
</defs>

<!-- Row 1: Signal pipeline -->
<rect x="30" y="40" width="120" height="52" rx="8" fill="#F1EFE8" stroke="#5F5E5A" stroke-width="0.5"/>
<text font-size="13" font-weight="500" x="90" y="63" text-anchor="middle" fill="#2C2C2A">Microphone</text>
<text font-size="11" x="90" y="81" text-anchor="middle" fill="#5F5E5A">CF-FM chirp 8 kHz</text>

<line x1="150" y1="66" x2="178" y2="66" stroke="#888" stroke-width="1.2" marker-end="url(#arrow)"/>

<rect x="178" y="40" width="130" height="52" rx="8" fill="#F1EFE8" stroke="#5F5E5A" stroke-width="0.5"/>
<text font-size="13" font-weight="500" x="243" y="63" text-anchor="middle" fill="#2C2C2A">Deconvolution</text>
<text font-size="11" x="243" y="81" text-anchor="middle" fill="#5F5E5A">Adaptive Wiener → RIR</text>

<line x1="308" y1="66" x2="336" y2="66" stroke="#888" stroke-width="1.2" marker-end="url(#arrow)"/>

<rect x="336" y="40" width="130" height="52" rx="8" fill="#F1EFE8" stroke="#5F5E5A" stroke-width="0.5"/>
<text font-size="13" font-weight="500" x="401" y="63" text-anchor="middle" fill="#2C2C2A">Feature extraction</text>
<text font-size="11" x="401" y="81" text-anchor="middle" fill="#5F5E5A">mel, MFCCs, RT60</text>

<line x1="466" y1="66" x2="494" y2="66" stroke="#888" stroke-width="1.2" marker-end="url(#arrow)"/>

<rect x="494" y="40" width="150" height="52" rx="8" fill="#EEEDFE" stroke="#534AB7" stroke-width="0.5"/>
<text font-size="13" font-weight="500" x="569" y="63" text-anchor="middle" fill="#26215C">CNN classifier</text>
<text font-size="11" x="569" y="81" text-anchor="middle" fill="#3C3489">5 classes · val acc 0.950</text>

<!-- Row 2: Staircase + Override -->
<line x1="401" y1="92" x2="401" y2="148" stroke="#888" stroke-width="1.2" stroke-dasharray="4 3" marker-end="url(#arrow)"/>

<rect x="296" y="148" width="210" height="52" rx="8" fill="#E1F5EE" stroke="#0F6E56" stroke-width="0.5"/>
<text font-size="13" font-weight="500" x="401" y="171" text-anchor="middle" fill="#04342C">Staircase detector</text>
<text font-size="11" x="401" y="189" text-anchor="middle" fill="#085041">Two-pass periodic · SNR &gt;27 dB</text>

<line x1="569" y1="92" x2="569" y2="148" stroke="#888" stroke-width="1.2" marker-end="url(#arrow)"/>

<rect x="494" y="148" width="150" height="52" rx="8" fill="#EEEDFE" stroke="#534AB7" stroke-width="0.5"/>
<text font-size="13" font-weight="500" x="569" y="171" text-anchor="middle" fill="#26215C">Override logic</text>
<text font-size="11" x="569" y="189" text-anchor="middle" fill="#3C3489">Stairs override CNN</text>

<!-- Merge arrows to Memory Agent -->
<line x1="506" y1="200" x2="440" y2="260" stroke="#888" stroke-width="1.2" marker-end="url(#arrow)"/>
<line x1="401" y1="200" x2="401" y2="260" stroke="#888" stroke-width="1.2" marker-end="url(#arrow)"/>

<!-- Row 3: Qwen Memory Agent -->
<rect x="180" y="260" width="440" height="60" rx="8" fill="#FAECE7" stroke="#993C1D" stroke-width="0.5"/>
<text font-size="13" font-weight="500" x="400" y="285" text-anchor="middle" fill="#4A1B0C">Qwen Memory Agent (Qwen-Max via DashScope API)</text>
<text font-size="11" x="400" y="305" text-anchor="middle" fill="#714B2C">Navigation instruction · memory ops · haptic pattern</text>

<!-- Row 4: Memory components -->
<line x1="280" y1="320" x2="230" y2="370" stroke="#888" stroke-width="1.2" marker-end="url(#arrow)"/>
<line x1="400" y1="320" x2="400" y2="370" stroke="#888" stroke-width="1.2" marker-end="url(#arrow)"/>
<line x1="520" y1="320" x2="570" y2="370" stroke="#888" stroke-width="1.2" marker-end="url(#arrow)"/>

<rect x="30" y="370" width="160" height="52" rx="8" fill="#E1F5EE" stroke="#0F6E56" stroke-width="0.5"/>
<text font-size="13" font-weight="500" x="110" y="393" text-anchor="middle" fill="#04342C">Episodic memory</text>
<text font-size="11" x="110" y="411" text-anchor="middle" fill="#085041">Recent observations</text>

<rect x="320" y="370" width="160" height="52" rx="8" fill="#E1F5EE" stroke="#0F6E56" stroke-width="0.5"/>
<text font-size="13" font-weight="500" x="400" y="393" text-anchor="middle" fill="#04342C">Semantic memory</text>
<text font-size="11" x="400" y="411" text-anchor="middle" fill="#085041">Consolidated rules</text>

<rect x="490" y="370" width="160" height="52" rx="8" fill="#E1F5EE" stroke="#0F6E56" stroke-width="0.5"/>
<text font-size="13" font-weight="500" x="570" y="393" text-anchor="middle" fill="#04342C">User profile</text>
<text font-size="11" x="570" y="411" text-anchor="middle" fill="#085041">Bayesian priors</text>

<!-- Row 5: Cloud -->
<line x1="400" y1="422" x2="400" y2="472" stroke="#888" stroke-width="1.2" marker-end="url(#arrow)"/>

<rect x="180" y="472" width="440" height="60" rx="8" fill="#E6F1FB" stroke="#185FA5" stroke-width="0.5"/>
<text font-size="13" font-weight="500" x="400" y="497" text-anchor="middle" fill="#042C53">Alibaba Cloud ECS · FastAPI backend</text>
<text font-size="11" x="400" y="517" text-anchor="middle" fill="#0C447C">src/cloud/api_server.py · src/cloud/deploy.py · Docker</text>

<!-- Legend -->
<rect x="30" y="552" width="12" height="12" rx="2" fill="#F1EFE8" stroke="#5F5E5A" stroke-width="0.5"/>
<text font-size="11" x="48" y="562" fill="#444441">Signal pipeline</text>
<rect x="160" y="552" width="12" height="12" rx="2" fill="#EEEDFE" stroke="#534AB7" stroke-width="0.5"/>
<text font-size="11" x="178" y="562" fill="#444441">ML models</text>
<rect x="270" y="552" width="12" height="12" rx="2" fill="#E1F5EE" stroke="#0F6E56" stroke-width="0.5"/>
<text font-size="11" x="288" y="562" fill="#444441">Staircase / memory</text>
<rect x="430" y="552" width="12" height="12" rx="2" fill="#FAECE7" stroke="#993C1D" stroke-width="0.5"/>
<text font-size="11" x="448" y="562" fill="#444441">Qwen agent</text>
<rect x="530" y="552" width="12" height="12" rx="2" fill="#E6F1FB" stroke="#185FA5" stroke-width="0.5"/>
<text font-size="11" x="548" y="562" fill="#444441">Cloud</text>
</svg>
